<svg width="57" height="57" fill="none" xmlns="http://www.w3.org/2000/svg"><circle cx="28.5" cy="28.5" r="28.5" fill="#6B9EFF"/><path fill-rule="evenodd" clip-rule="evenodd" d="M44.782 21.364c.248-.815 0-1.414-1.178-1.414h-3.898c-.99 0-1.447.518-1.695 1.088 0 0-1.982 4.769-4.79 7.866-.908.897-1.321 1.182-1.816 1.182-.248 0-.607-.285-.607-1.1v-7.622c0-.978-.287-1.414-1.113-1.414H23.56c-.62 0-.991.454-.991.884 0 .928 1.403 1.142 1.548 3.75v5.665c0 1.242-.227 1.467-.723 1.467-1.321 0-4.535-4.79-6.441-10.27-.374-1.066-.748-1.496-1.744-1.496H11.31c-1.113 0-1.336.518-1.336 1.088 0 1.02 1.321 6.073 6.152 12.757 3.22 4.564 7.758 7.039 11.887 7.039 2.478 0 2.784-.55 2.784-1.496v-3.45c0-1.1.235-1.319 1.02-1.319.577 0 1.568.285 3.88 2.486 2.643 2.609 3.079 3.779 4.565 3.779h3.898c1.113 0 1.67-.55 1.349-1.634-.352-1.081-1.613-2.65-3.288-4.509-.908-1.06-2.27-2.2-2.683-2.771-.578-.734-.413-1.06 0-1.712 0 0 4.748-6.602 5.243-8.844z" fill="#fff"/></svg>