<svg width="27" height="28" fill="none" xmlns="http://www.w3.org/2000/svg"><circle cx="13.5" cy="14" r="13.5" fill="#6B9EFF"/><path d="M20.066 18.924l-2.629-2.63a.632.632 0 00-.448-.184h-.43a5.484 5.484 0 00-4.325-8.86 5.484 5.484 0 00-5.484 5.485 5.484 5.484 0 008.86 4.324v.43c0 .169.066.33.185.448l2.629 2.63a.63.63 0 00.893 0l.747-.747a.636.636 0 00.002-.896zm-7.831-2.814a3.373 3.373 0 01-3.375-3.375 3.373 3.373 0 013.375-3.375 3.373 3.373 0 013.375 3.375 3.373 3.373 0 01-3.375 3.375z" fill="#F5F5F5"/></svg>