<svg width="40" height="40" fill="none" xmlns="http://www.w3.org/2000/svg"><circle cx="20" cy="20" r="20" fill="#6B9EFF"/><path d="M29.728 27.294L25.833 23.4a.937.937 0 00-.664-.273h-.637a8.086 8.086 0 001.72-5A8.124 8.124 0 0018.125 10 8.124 8.124 0 0010 18.126a8.124 8.124 0 008.126 8.125c1.886 0 3.621-.64 5-1.719v.637c0 .25.098.488.273.664l3.895 3.895a.934.934 0 001.325 0l1.105-1.106a.942.942 0 00.004-1.328zm-11.602-4.168c-2.762 0-5-2.235-5-5 0-2.762 2.234-5 5-5 2.761 0 5 2.234 5 5 0 2.761-2.235 5-5 5z" fill="#F5F5F5"/></svg>