<svg width="45" height="40" fill="none" xmlns="http://www.w3.org/2000/svg"><path d="M13.677 22.26a6.509 6.509 0 005.69-.022c2.114 1.007 4.025.498 5.433 0 2.053 1.179 4.406.707 5.736-.022-.434 1.552-3.619 2.514-5.732.98-1.09.71-3.578 1.29-5.432.019-1.29.748-4.23 1.6-5.695-.947v-.007z" fill="#6493CE"/><path d="M21.117 18.232h2.27v1.171h-2.27v-1.17z" fill="#48617A"/><path d="M30.828 18.229v.852c-.22 2.79-2.978 3.808-4.919 2.619l-.063-.045a3.254 3.254 0 01-.248-.172c-.26-.182-.494-.4-.693-.647a3.343 3.343 0 01-.87.815.201.201 0 00-.034.03c-.016.018-.032.034-.048.034a3.223 3.223 0 01-4.357-.887c-1.798 2.405-5.635 1.579-5.897-1.747v-.796h4.414v1.17h-2.998c.191 2.2 3.578 1.904 3.826 0 .092-.97.106-1.948.04-2.921h1.248c.007.353.004.747.001 1.137-.005.698-.01 1.381.04 1.784.218 1.661 3.088 2.133 3.837 0a12.1 12.1 0 00.195-2.955h.075c.16-.022.288-.022.472-.022h.686c-.066.973-.052 1.95.04 2.921.248 1.92 3.635 2.215 3.826 0h-2.892v-1.17h4.32z" fill="#48617A"/><path fill-rule="evenodd" clip-rule="evenodd" d="M25.921 10.634a9.7 9.7 0 013.17 2.115 10.075 10.075 0 012.993 7.167c.022 5.524-4.388 10.05-9.824 10.07a9.754 9.754 0 01-6.924-2.855 10.148 10.148 0 01-.04-14.326 9.702 9.702 0 016.885-2.903 9.715 9.715 0 013.74.732zm-13.302 9.38a9.919 9.919 0 001.361 4.951c3.027-.01 5.584-.017 7.742-.022 4.317-.01 7.043-.018 8.77-.053a9.911 9.911 0 000-9.923c-.993 0-2.324.009-4.117.021-2.836.02-6.827.046-12.458.058a9.918 9.918 0 00-1.298 4.968z" fill="#48617A"/><path d="M13.182 5.945c.31-.143.55-.287.792-.431.227-.136.456-.273.745-.41-.207-.598-.388-1.148-.551-1.646-.936-2.85-1.329-4.05-3.076-3.18-1.925.958-.744 2.343 1.607 5.1l.483.567zm16.478-.838c.27.187.51.313.749.44.24.126.48.252.75.44.267-.336.522-.652.763-.95 2.128-2.634 3.103-3.84 1.383-4.718-1.85-.943-2.374.73-3.523 4.398l-.122.39z" fill="#916854"/><path fill-rule="evenodd" clip-rule="evenodd" d="M22.174 5.16c-8.07.03-14.634 6.691-14.611 14.846.022 8.154 6.642 14.786 14.716 14.741 8.074-.045 14.634-6.695 14.612-14.85-.023-8.154-6.643-14.767-14.717-14.738zm.101 28.51a13.778 13.778 0 01-7.687-2.231 13.744 13.744 0 01-5.143-6.126 13.718 13.718 0 012.86-15.025 13.782 13.782 0 0115.007-3.074 13.756 13.756 0 016.21 5.045 13.724 13.724 0 012.346 7.642 13.69 13.69 0 01-3.95 9.686 13.734 13.734 0 01-9.643 4.083z" fill="#916854"/><path d="M28.787 5.04l-.356.751 2.667 1.56.446-.74-2.757-1.571zm9.753 13.858c-.035.36-.027.654-.02.953.007.26.014.524-.007.835.593.108 1.135.215 1.63.313 2.938.58 4.174.825 4.293-1.154.129-2.143-1.59-1.802-5.048-1.114l-.849.167zm-.357-.811l-.832.045-.048 3.123.831.026.049-3.194zM30.9 34.077a8.538 8.538 0 00-.776.442 8.46 8.46 0 01-.723.415c.208.585.39 1.123.555 1.613v.002c.964 2.856 1.368 4.052 3.117 3.162 1.914-.975.726-2.335-1.641-5.044l-.517-.593-.015.003zm.532-.733l-.465-.688-2.69 1.515.405.752 2.75-1.579zm-16.976 1.141c-.272-.185-.513-.314-.754-.443a7.712 7.712 0 01-.77-.455c-.401.503-.775.955-1.113 1.365-1.877 2.272-2.675 3.239-1.05 4.29 1.798 1.165 2.355-.582 3.458-4.04l.23-.717zm.869.064l.356-.752-2.667-1.575-.442.74 2.753 1.587zM5.933 20.578a9.03 9.03 0 00-.012-.899 8.918 8.918 0 01-.01-.874 98.167 98.167 0 01-1.662-.27c-2.944-.493-4.183-.701-4.247 1.276-.07 2.164 1.692 1.753 5.174.942h.001l.756-.175zm.378.804l.82-.079-.026-3.119-.846-.015.052 3.213zM12.64 6.678l.464.692 2.701-1.485-.386-.752-2.78 1.545z" fill="#916854"/><path d="M9.312 20.634l-.037-.49 2.09-.165.139 1.773-2.09.165-.046-.498 1.686-.13-.063-.79-1.679.135z" fill="#D24A43"/><path fill-rule="evenodd" clip-rule="evenodd" d="M11.822 22.998c.113.411.053.804-.445.939a.685.685 0 01-.885-.591l-.123-.453-.697.187-.131-.475 2.027-.531.254.924zm-1.06-.213l.101.374c.06.224.173.318.375.265.26-.071.205-.284.176-.395l-.004-.016-.1-.374-.548.146zm.745 1.353a1.007 1.007 0 00-.408.146 1.008 1.008 0 00-.524 1.444.994.994 0 001.057.611.998.998 0 00.408-.15.997.997 0 00.524-1.445 1.007 1.007 0 00-1.057-.606zm.694.786c.22.453-.233.7-.398.782v.003c-.157.075-.64.288-.861-.164-.12-.247-.094-.539.397-.782.43-.213.712-.142.862.161zm-.001 2.873l-.052-.064c-.51-.624-.22-1.088.042-1.298.262-.21.775-.396 1.28.229l.053.063.229-.187.31.374-.228.187.049.06c.513.628.217 1.096-.037 1.302-.255.205-.772.396-1.286-.232l-.048-.06-.229.187-.31-.374.228-.187zm1.042-.786l-.026-.03a.468.468 0 00-.704-.146c-.169.135-.296.356 0 .719l.026.03.704-.573zm-.423.913c.217.27.45.352.704.146a.47.47 0 00.125-.558.47.47 0 00-.125-.16l-.033-.041-.705.568.034.045z" fill="#D24A43"/><path d="M15.13 30.337a.85.85 0 00.278-.206l-.39-.303a.42.42 0 01-.588.03c-.262-.21-.225-.546.022-.853.439-.546.757-.322.843-.25a.375.375 0 01.113.557l.374.303c.184-.251.326-.73-.254-1.194l-.003-.002c-.156-.112-.811-.587-1.496.268-.513.64-.285 1.14.135 1.474a.852.852 0 00.966.176z" fill="#D24A43"/><path fill-rule="evenodd" clip-rule="evenodd" d="M15.824 30.041a1.007 1.007 0 01.614-.578 1.01 1.01 0 01.84.091 1.123 1.123 0 01-1.02 1.968 1.008 1.008 0 01-.434-1.481zm1.408.748c.087-.164.304-.632-.146-.864-.3-.157-.57-.045-.79.374-.251.486-.098.748.146.864.45.22.712-.235.794-.393l-.004.02zm1.873.03a.946.946 0 00-.187.322l-.262-.067.184-.771-.48-.112-.48 2.035.48.116.191-.868.262.063a.956.956 0 00.806 1.171 1.125 1.125 0 001.173-.86 1.121 1.121 0 00-.66-1.294.949.949 0 00-1.027.265zm.263.692c.045-.187.183-.677.674-.56h-.004c.495.1.394.62.353.803-.041.184-.184.674-.675.558-.49-.116-.393-.614-.348-.8z" fill="#D24A43"/><path d="M21.702 32.173c0 .217.139.374.495.374s.427-.157.427-.273c0-.24-.24-.254-.375-.254h-.296v-.374h.247c.143 0 .345-.023.345-.232 0-.21-.337-.25-.408-.25a.33.33 0 00-.375.332h-.48c.034-.568.375-.748.922-.748.472 0 .888.146.888.591a.445.445 0 01-.4.46.49.49 0 01.464.531c0 .532-.517.629-.974.629-.457 0-.926-.098-.96-.782l.48-.004zm3.402.427l-.409-1.444.937 1.29.322-.093.094-1.582.412 1.436.476-.135-.577-2.012-.667.19-.086 1.523-.877-1.246-.678.195.577 2.012.476-.134z" fill="#D24A43"/><path fill-rule="evenodd" clip-rule="evenodd" d="M27.018 30.894a1.005 1.005 0 01.375-1.496 1.126 1.126 0 011.421.49 1.12 1.12 0 01-.338 1.462 1.008 1.008 0 01-1.458-.456zm1.39-.767c-.09-.16-.374-.602-.802-.374-.296.165-.355.45-.123.868.266.479.558.49.802.374.442-.243.21-.71.123-.868zm1.915-1.937c-.334-.374-.716-.273-1.042 0l-.749.617 1.337 1.605.375-.319-.464-.553.374-.3a.684.684 0 00.169-1.05zm-.495.804l-.296.247-.36-.45.297-.246.012-.01c.08-.06.26-.195.433.01.132.157.094.3-.086.449zm1.829-1.284l.296.779-.375.452-.273-.882a.611.611 0 01-.858 0 .662.662 0 01-.042-1.007l.693-.8 1.615 1.34-.315.373-.558-.464-.183.21zm-.87-.463c-.164.202-.09.344 0 .423.09.078.252.145.439-.079l.285-.34-.413-.36-.31.356z" fill="#D24A43"/><path d="M32.132 24.419l-.284.505.42 1.044-.75-.43-.244.43 1.829 1.024.243-.43-.884-.49 1.259-.145.262-.524-1.427.217-.424-1.201z" fill="#D24A43"/><path fill-rule="evenodd" clip-rule="evenodd" d="M33.148 24.748a1.01 1.01 0 01-.79-.927 1.006 1.006 0 01.07-.427 1.123 1.123 0 012.106.7 1.006 1.006 0 01-1.386.654zm.498-1.496c-.176-.06-.67-.202-.832.28-.105.322.045.57.498.723.521.172.75 0 .832-.28.165-.491-.326-.678-.494-.734l-.004.011zm-.068-2.674c-.232-.03-.539.033-.606.576l-.124 1.04 2.083.254.097-.984c.045-.37.015-.804-.487-.868a.518.518 0 00-.588.374.437.437 0 00-.375-.392zm.2.778l-.057.452-.416-.052.053-.43c.03-.217.15-.24.236-.24a.218.218 0 01.183.27zm.864.048l-.063.509-.472-.06.056-.445c.019-.176.082-.325.277-.303a.252.252 0 01.203.3z" fill="#D24A43"/><path d="M24.962 7.34l-.491-.071-1.02 1.223.192-1.34-.491-.07-.296 2.072.476.067 1.023-1.234-.18 1.37.49.055.297-2.072zm-.866-.441c-.184-.027-.229-.135-.229-.236l-.33-.045c-.033.37.432.479.529.494.098.015.562.048.644-.326l-.33-.048c-.014.1-.1.187-.284.16zm-2.544.191l.495-.042.172 2.087-.487.042-.112-1.362-.72 1.433-.494.04-.173-2.086.495-.042.112 1.347.712-1.418zm-1.828 1.925a.847.847 0 00-.023-.351l-.483.168a.418.418 0 01-.303.505c-.323.101-.578-.12-.697-.493-.21-.67.157-.805.262-.838a.375.375 0 01.528.217l.465-.146c-.094-.288-.416-.673-1.124-.453-.191.06-.952.34-.618 1.395.247.786.786.872 1.3.711a.85.85 0 00.693-.715zm-2.417.461a.846.846 0 01-.423 1.167c-.465.27-1.012.3-1.424-.412-.554-.957.128-1.395.3-1.496.644-.374 1.038-.063 1.206.195l-.42.243a.373.373 0 00-.561-.097c-.098.056-.424.269-.071.875.198.34.494.497.786.329a.419.419 0 00.184-.561l.423-.243z" fill="#D24A43"/><path fill-rule="evenodd" clip-rule="evenodd" d="M13.083 11.682c.06.134.147.252.257.349a1.007 1.007 0 001.532.09.997.997 0 00.284-1.187.995.995 0 00-.261-.347.995.995 0 00-1.174-.335.998.998 0 00-.359.245 1.005 1.005 0 00-.28 1.185zm.553-.886c.37-.344.738.019.865.154h.004l.003.003c.112.131.45.527.083.868-.202.187-.54.198-.865-.153-.326-.352-.338-.64-.09-.872zm-1.012 1.5c-.43-.292-.768-.082-1.008.27l-.554.789 1.73 1.185.282-.407-.596-.408.266-.374a.682.682 0 00-.12-1.055zm-.266.894l-.217.318-.461-.314.217-.318c.049-.094.188-.3.424-.138.168.112.168.258.037.452z" fill="#D24A43"/><path d="M27.3 9.554a.85.85 0 01-1.177.408c-.498-.19-.873-.606-.577-1.354.393-1.032 1.165-.782 1.352-.71.694.265.705.747.607 1.058l-.453-.172a.374.374 0 00-.277-.498c-.105-.04-.476-.157-.727.494-.142.374-.075.7.24.82a.42.42 0 00.55-.21l.461.164zm2.817.161l-.487-.318-1.087.344.48-.748-.416-.27-1.143 1.755.412.28.566-.852.064 1.26.506.33-.124-1.437 1.229-.344zm1.607 1.511l.348.352-1.498 1.47-.349-.351.975-.962-1.563.374-.348-.351 1.498-1.47.349.351-.963.95 1.551-.363zm1.996 2.761l-.265-.42h-1.607l1.176-.721-.262-.419-1.784 1.104.263.418h1.603l-1.165.719.259.419 1.783-1.1z" fill="#D24A43"/></svg>