<svg width="41" height="40" fill="none" xmlns="http://www.w3.org/2000/svg"><path d="M19.997.004a7 7 0 01.844.018c.167.015.337.012.507.023.39.026.777.064 1.165.112.317.04.632.092.948.141.366.057.727.138 1.088.217.353.077.7.175 1.047.276a20.196 20.196 0 012.768 1.032c.422.19.832.402 1.237.625.7.384 1.376.81 2.024 1.276.35.253.698.51 1.031.785.26.215.518.432.764.662.306.287.622.564.91.87.416.436.815.887 1.198 1.352a20.042 20.042 0 013.218 5.62c.17.46.32.924.458 1.394.258.87.451 1.756.579 2.654.05.344.096.688.128 1.032.026.264.042.529.059.793.011.185-.004.374.04.557v1.138c-.038.03-.017.073-.019.108-.022.43-.053.857-.091 1.285-.041.44-.097.88-.17 1.317a20.276 20.276 0 01-.626 2.654 20.667 20.667 0 01-.972 2.508 19.913 19.913 0 01-1.594 2.804c-.315.465-.652.916-1.01 1.35a24.55 24.55 0 01-1 1.14c-.201.213-.4.428-.615.628a27.63 27.63 0 01-1.035.929 20.029 20.029 0 01-2.068 1.529 20.47 20.47 0 01-3.296 1.714 19.777 19.777 0 01-6.522 1.436c-.332.02-.663.02-.994.013l-.005-.318c.002-.042.005-.085.005-.127 0-.67.001-1.34-.003-2.01 0-.086.023-.111.11-.11.349.006.698-.007 1.047-.03.334-.023.668-.056 1-.095.402-.048.802-.11 1.2-.187a16.779 16.779 0 001.853-.46 19.305 19.305 0 001.775-.65 17.009 17.009 0 001.954-.975c.706-.41 1.384-.867 2.029-1.367.444-.346.878-.704 1.285-1.09a18.8 18.8 0 002.578-2.978 18.386 18.386 0 001.596-2.788c.246-.536.471-1.08.665-1.636.302-.858.542-1.736.72-2.628.063-.333.117-.666.167-1.001.045-.307.081-.614.11-.922.023-.256.033-.513.05-.77.026-.355.037-.71.033-1.064a18.345 18.345 0 00-.103-1.83c-.039-.35-.077-.7-.129-1.046a17.886 17.886 0 00-.445-2.067 17.683 17.683 0 00-.542-1.662 19.287 19.287 0 00-1.16-2.486 18.618 18.618 0 00-2.667-3.652 17.854 17.854 0 00-.94-.93c-.344-.318-.7-.624-1.067-.916a18.33 18.33 0 00-1.743-1.22 17.775 17.775 0 00-4.374-1.943c-.482-.139-.969-.26-1.46-.361-.243-.05-.49-.08-.733-.128a8.749 8.749 0 00-.762-.107c-.286-.03-.571-.055-.859-.073a17.196 17.196 0 00-1.176-.043c-.023-.107-.007-.214-.01-.322" fill="#22A53C"/><path d="M19.998.004c.002.108-.015.215.009.322 0 .708-.002 1.417.002 2.124 0 .098-.027.124-.123.122-.238-.003-.476.016-.714.026-.346.014-.69.042-1.034.07-.373.032-.742.09-1.11.15-.407.065-.812.149-1.213.248a17.563 17.563 0 00-3.25 1.126c-.598.273-1.18.578-1.745.913-.63.379-1.235.795-1.814 1.247a17.885 17.885 0 00-2.718 2.606c-.403.475-.782.969-1.136 1.48a18.465 18.465 0 00-1.684 2.992c-.414.924-.75 1.88-1.007 2.86a19.507 19.507 0 00-.491 2.578c-.06.5-.116 1.004-.127 1.506a19.94 19.94 0 00.037 2.062c.027.33.06.66.094.99a17.36 17.36 0 00.526 2.686c.176.628.377 1.248.613 1.858a18.413 18.413 0 002.197 4.071c.436.614.91 1.2 1.417 1.755.294.32.594.637.917.93.332.303.664.603 1.01.89.34.282.69.552 1.053.804a18.016 18.016 0 004.502 2.301 16.988 16.988 0 002.815.717c.733.12 1.473.197 2.215.232.25.014.502.006.754.008l.004.318c-.336.005-.67.005-1.007-.013a41.256 41.256 0 01-.85-.056 11.63 11.63 0 01-.845-.095 20.513 20.513 0 01-2.472-.502 19.857 19.857 0 01-7.577-3.916 20.464 20.464 0 01-1.86-1.751 19.54 19.54 0 01-1.16-1.36 19.629 19.629 0 01-2.634-4.464c-.328-.77-.608-1.56-.838-2.364A19.19 19.19 0 01.3 23.492c-.071-.406-.13-.814-.18-1.223-.036-.308-.055-.619-.078-.929a18.468 18.468 0 01-.037-1.747c.008-.377.011-.756.043-1.132.372-4.263 1.903-8.052 4.648-11.341a19.58 19.58 0 011.642-1.735 20.068 20.068 0 018.34-4.678c.707-.195 1.425-.35 2.15-.465.414-.066.83-.119 1.248-.15.34-.027.68-.053 1.022-.071.3-.016.6-.023.9-.017" fill="#0068B2"/><path d="M10.28 26.202h.135c.929 0 1.857 0 2.786.002.084 0 .116-.02.135-.108.446-2.101.894-4.202 1.343-6.303.035-.165.077-.33.106-.497.013-.07.039-.087.105-.087.902.002 1.804.004 2.706 0 .102 0 .087.041.074.107-.135.623-.267 1.246-.4 1.87-.22 1.027-.441 2.054-.655 3.083-.072.35-.094.706-.005 1.06.127.508.484.79.963.94.425.135.864.162 1.306.177.834.028 1.624-.166 2.39-.483.048-.02.083-.04.084-.105.002-.534.009-1.068.014-1.602 0-.015-.003-.03-.007-.052-.23.094-.474.149-.723.162-.147.006-.293 0-.437-.037-.23-.06-.345-.194-.37-.432-.036-.349.035-.686.106-1.022.248-1.188.502-2.374.75-3.561.017-.081.044-.106.126-.105 1.087.003 2.175.003 3.263 0 .1 0 .112.03.094.116-.434 2.146-.86 4.296-1.302 6.441-.235 1.144-.716 2.175-1.493 3.058-.042.049-.042.073.007.116.566.494 1.13.989 1.694 1.484.04.035.065.061.12.007 1.079-1.052 1.911-2.264 2.407-3.697.222-.638.338-1.3.472-1.958.318-1.548.633-3.097.95-4.644.055-.277.113-.553.165-.83.013-.073.04-.094.112-.093.418.004.836 0 1.254.004.073 0 .107-.02.135-.09.24-.593.485-1.186.733-1.777.036-.087.033-.116-.074-.116-.554.005-1.108 0-1.66.005-.086 0-.119-.015-.098-.11.079-.357.148-.718.227-1.076a.843.843 0 01.793-.648c.264-.007.516.041.75.163.081.042.111.016.151-.05.214-.36.433-.714.646-1.074.048-.082.071-.103.148-.02 1.69 1.835 3.384 3.666 5.08 5.497.065.07.056.107-.005.172a4950.934 4950.934 0 00-4.403 4.762l-6.228 6.74-4.644 5.028c-.103.111-.103.111-.207 0l-5.872-6.358-3.692-3.997-.056-.062" fill="#22A53C"/><path d="M14.21 12.627l-.062.055-.309.315-1.686 1.695c-.038.04-.077.066-.02.13.623.719 1.244 1.44 1.863 2.162.051.06.078.054.13.001.434-.441.87-.88 1.305-1.32.218-.22.433-.442.655-.658.074-.072.097-.123.01-.202-.077-.07-.138-.156-.206-.236l-1.612-1.872-.067-.07zm15.047.662a7.554 7.554 0 00-.629-.036c-.611-.018-1.212.04-1.79.252-1.01.37-1.633 1.108-1.964 2.11a7.257 7.257 0 00-.306 1.497c-.011.1-.042.123-.139.123a386.55 386.55 0 00-3.158 0c-.109 0-.125-.023-.103-.129.176-.85.355-1.7.617-2.548-.21.029-.408.056-.606.085-.78.113-1.56.23-2.34.339-.113.016-.161.063-.194.168-.2.631-.341 1.275-.486 1.92-.044.193.002.162-.206.163-1.872 0-3.745.001-5.617-.003-.106 0-.144.027-.166.13-.478 2.264-.96 4.527-1.439 6.79-.016.077-.043.1-.12.1-.68-.003-1.362 0-2.043.002a.193.193 0 01-.159-.07 1598.52 1598.52 0 00-3.796-4.104c-.07-.076-.04-.108.012-.163l5.48-5.93 4.818-5.214 4.983-5.394.098-.103 9.253 10.015" fill="#0068B2"/></svg>