<svg width="88" height="87" fill="none" xmlns="http://www.w3.org/2000/svg"><path d="M44.473.009c.611-.013 1.222-.02 1.834.038.365.033.734.027 1.103.052.848.055 1.69.137 2.534.243.69.088 1.376.2 2.062.306.797.125 1.582.3 2.368.472.767.168 1.523.38 2.277.6.758.221 1.507.47 2.254.726 1.283.443 2.533.962 3.767 1.52a37.92 37.92 0 012.688 1.358A43.162 43.162 0 0169.763 8.1c.762.55 1.518 1.11 2.243 1.708.565.466 1.125.938 1.66 1.438.668.625 1.354 1.228 1.981 1.895a53.972 53.972 0 012.604 2.94 43.588 43.588 0 017 12.223c.369.998.694 2.01.997 3.031.56 1.89.98 3.82 1.258 5.772.109.748.208 1.496.28 2.246.055.573.09 1.15.127 1.724.025.403-.008.813.087 1.211v2.476c-.082.066-.036.157-.041.235a72.04 72.04 0 01-.199 2.794 40.487 40.487 0 01-.368 2.864c-.138.863-.317 1.72-.505 2.576a36.692 36.692 0 01-.857 3.196 44.907 44.907 0 01-2.115 5.456 43.325 43.325 0 01-3.465 6.098 38.853 38.853 0 01-2.197 2.936 52.351 52.351 0 01-2.177 2.479c-.437.466-.87.933-1.336 1.367a61.796 61.796 0 01-2.251 2.02 43.505 43.505 0 01-4.498 3.326 43.562 43.562 0 01-2.792 1.646 43.986 43.986 0 01-4.378 2.082 41.491 41.491 0 01-4.154 1.445 42.994 42.994 0 01-7.885 1.522c-.715.065-1.428.117-2.147.158-.72.042-1.44.04-2.162.028l-.01-.691c.004-.093.01-.187.01-.278 0-1.456.003-2.913-.005-4.37 0-.19.05-.243.24-.24a26.75 26.75 0 002.276-.068c.726-.049 1.452-.12 2.175-.205.874-.104 1.745-.24 2.609-.406a36.514 36.514 0 004.032-1.002 41.965 41.965 0 003.86-1.413 37.018 37.018 0 004.251-2.12 39.913 39.913 0 004.411-2.973 37.83 37.83 0 002.797-2.373 40.863 40.863 0 005.606-6.476 39.98 39.98 0 003.47-6.062 39.927 39.927 0 001.448-3.56 41.76 41.76 0 001.565-5.715c.138-.724.256-1.449.363-2.178.098-.667.177-1.334.239-2.005.052-.556.074-1.117.112-1.674.053-.772.079-1.544.07-2.314a39.926 39.926 0 00-.225-3.98c-.084-.76-.166-1.522-.28-2.277a38.95 38.95 0 00-.968-4.494 38.435 38.435 0 00-1.18-3.615 41.985 41.985 0 00-2.521-5.407 40.496 40.496 0 00-5.802-7.944 38.807 38.807 0 00-2.042-2.021 40.061 40.061 0 00-2.324-1.994 39.867 39.867 0 00-3.79-2.654 38.659 38.659 0 00-9.513-4.224 42.203 42.203 0 00-3.175-.787c-.529-.11-1.067-.173-1.596-.277A19.018 19.018 0 0048.92.96C48.3.895 47.677.84 47.052.803 46.2.75 45.348.703 44.494.708c-.05-.232-.016-.465-.02-.699z" fill="#22A53C"/><path d="M44.473.009c.007.234-.031.467.02.7 0 1.54-.004 3.081.004 4.62.002.213-.057.269-.267.265-.517-.007-1.035.035-1.553.056-.753.031-1.5.093-2.249.154-.811.068-1.613.195-2.413.324-.885.142-1.766.325-2.639.54a38.199 38.199 0 00-7.07 2.45 39.86 39.86 0 00-3.794 1.986 39.832 39.832 0 00-3.946 2.71 41.327 41.327 0 00-3.105 2.677 38.907 38.907 0 00-2.806 2.993 40.958 40.958 0 00-2.471 3.22 40.165 40.165 0 00-3.662 6.506c-.9 2.01-1.633 4.09-2.19 6.22a42.427 42.427 0 00-1.069 5.608c-.131 1.09-.252 2.183-.276 3.276-.032 1.493-.043 2.99.08 4.483.06.72.13 1.437.205 2.154.087.838.214 1.673.368 2.498a38.7 38.7 0 00.775 3.344 44.49 44.49 0 001.334 4.042 40.049 40.049 0 004.779 8.855 39.824 39.824 0 003.082 3.815c.64.698 1.291 1.386 1.993 2.026.723.657 1.446 1.31 2.199 1.934.739.614 1.5 1.2 2.288 1.749a39.18 39.18 0 006.276 3.596c1.152.521 2.323.993 3.518 1.408a36.77 36.77 0 003.824 1.102c.76.174 1.527.329 2.298.458 1.594.26 3.203.43 4.816.505.546.029 1.094.011 1.642.016l.008.692c-.731.01-1.459.012-2.19-.027a89.851 89.851 0 01-1.85-.123 25.337 25.337 0 01-1.836-.206 62.952 62.952 0 01-2.304-.385 44.624 44.624 0 01-3.073-.706 41.928 41.928 0 01-6.351-2.238 43.186 43.186 0 01-10.13-6.279 44.526 44.526 0 01-4.046-3.81 42.473 42.473 0 01-2.524-2.957 42.69 42.69 0 01-5.727-9.71 44.048 44.048 0 01-1.823-5.141 41.734 41.734 0 01-.985-4.313 49.064 49.064 0 01-.39-2.66c-.079-.671-.121-1.347-.17-2.021a40.168 40.168 0 01-.082-3.8c.017-.821.025-1.645.094-2.463.81-9.272 4.139-17.512 10.11-24.667a42.581 42.581 0 013.57-3.773A43.655 43.655 0 0119.3 8.01a43.382 43.382 0 0113.604-6.473A42.92 42.92 0 0137.58.527c.9-.144 1.804-.26 2.715-.329.74-.056 1.479-.113 2.222-.153.654-.034 1.305-.05 1.957-.036z" fill="#0068B2"/><path d="M23.336 56.989h.295c2.02 0 4.04-.002 6.06.005.183 0 .253-.044.294-.236a9014 9014 0 012.92-13.707c.077-.36.169-.72.232-1.083.026-.152.083-.188.228-.188 1.962.005 3.922.008 5.884-.002.223 0 .191.092.161.234-.292 1.354-.58 2.71-.87 4.067-.476 2.235-.959 4.467-1.423 6.706-.158.762-.205 1.536-.013 2.305.278 1.106 1.055 1.717 2.096 2.046.924.292 1.878.35 2.84.383 1.815.062 3.533-.36 5.197-1.05.105-.044.183-.085.184-.228.005-1.162.02-2.323.032-3.484 0-.032-.008-.064-.016-.114a4.75 4.75 0 01-1.572.352c-.32.014-.639 0-.951-.08-.502-.129-.752-.422-.805-.94-.08-.758.077-1.492.23-2.223.54-2.583 1.092-5.162 1.632-7.745.036-.175.095-.229.275-.227 2.364.006 4.73.006 7.096 0 .216-.002.242.063.205.252-.946 4.669-1.872 9.343-2.832 14.01-.511 2.488-1.56 4.73-3.248 6.65-.091.107-.091.159.016.253 1.231 1.074 2.457 2.15 3.684 3.227.086.076.142.133.262.016 2.345-2.29 4.155-4.925 5.235-8.042.481-1.388.734-2.827 1.026-4.26.692-3.365 1.377-6.734 2.064-10.1.122-.601.248-1.201.36-1.804.028-.158.087-.204.244-.202.91.008 1.819 0 2.728.008.157 0 .232-.043.293-.194.524-1.292 1.056-2.58 1.594-3.867.08-.19.073-.252-.16-.25-1.205.01-2.41 0-3.612.009-.186 0-.257-.032-.211-.237.17-.778.322-1.563.494-2.341a1.835 1.835 0 011.723-1.41 3.284 3.284 0 011.634.354c.175.091.24.034.326-.111.466-.78.943-1.552 1.405-2.333.106-.18.155-.225.322-.043 3.677 3.99 7.36 7.973 11.048 11.954.142.155.123.234-.01.376-3.194 3.45-6.387 6.902-9.577 10.356L54.81 68.711l-10.1 10.936c-.225.241-.225.241-.449 0l-12.773-13.83-8.03-8.692-.121-.136z" fill="#22A53C"/><path d="M31.887 27.463c-.05.045-.095.08-.136.121-.224.227-.447.458-.672.684l-3.667 3.688c-.083.085-.167.142-.046.282a952.085 952.085 0 014.053 4.702c.113.132.17.118.284.003.943-.96 1.891-1.915 2.838-2.874.474-.476.943-.96 1.425-1.428.161-.158.21-.267.02-.44-.166-.15-.299-.34-.446-.512l-3.507-4.073c-.042-.048-.09-.095-.146-.153zm32.726 1.44a16.417 16.417 0 00-1.368-.078c-1.33-.038-2.637.088-3.893.55-2.197.805-3.552 2.409-4.273 4.589a15.766 15.766 0 00-.664 3.255c-.026.218-.092.268-.303.268a786.39 786.39 0 00-6.869 0c-.237 0-.271-.052-.224-.28.384-1.85.773-3.698 1.342-5.544-.458.064-.887.122-1.318.185-1.695.246-3.392.502-5.09.737-.247.035-.35.138-.422.365-.434 1.374-.741 2.775-1.057 4.176-.095.421.005.353-.447.355-4.072 0-8.147.003-12.219-.006-.23 0-.312.06-.36.284-1.04 4.924-2.088 9.845-3.13 14.769-.034.165-.094.214-.261.214-1.48-.005-2.962 0-4.443.007a.42.42 0 01-.346-.152c-2.747-2.98-5.5-5.956-8.257-8.928-.153-.164-.085-.235.027-.355 3.974-4.297 7.946-8.597 11.919-12.896l10.48-11.341L44.273 7.345c.068-.074.138-.145.213-.224l20.126 21.783z" fill="#0068B2"/></svg>