<svg width="97" height="87" fill="none" xmlns="http://www.w3.org/2000/svg"><path d="M29.747 48.417a14.157 14.157 0 0012.378-.048c4.596 2.188 8.752 1.082 11.816 0 4.465 2.562 9.583 1.537 12.475-.05-.945 3.377-7.871 5.468-12.467 2.132-2.371 1.546-7.782 2.807-11.816.041-2.803 1.627-9.2 3.482-12.386-2.058v-.017z" fill="#6493CE"/><path d="M45.93 39.655h4.938v2.547H45.93v-2.547z" fill="#48617A"/><path d="M67.052 39.647v1.855c-.48 6.07-6.478 8.282-10.7 5.695l-.138-.098a7.168 7.168 0 01-.538-.374 7.271 7.271 0 01-1.507-1.407 7.27 7.27 0 01-1.89 1.773.393.393 0 00-.076.067c-.036.036-.07.071-.104.071a7.009 7.009 0 01-9.477-1.928c-3.911 5.231-12.256 3.433-12.826-3.8V39.77h9.599v2.547h-6.519c.416 4.783 7.782 4.14 8.32 0 .202-2.113.232-4.238.09-6.354h2.713c.015.766.008 1.624.002 2.472-.011 1.518-.022 3.005.088 3.882.472 3.612 6.714 4.637 8.344 0a26.34 26.34 0 00.424-6.428h.163c.35-.048.627-.048 1.026-.048h1.492a39.132 39.132 0 00.09 6.353c.537 4.174 7.904 4.817 8.32 0h-6.292v-2.546h9.396z" fill="#48617A"/><path fill-rule="evenodd" clip-rule="evenodd" d="M56.379 23.13a21.099 21.099 0 016.892 4.599 21.888 21.888 0 016.51 15.588c.05 12.016-9.541 21.86-21.365 21.9a21.215 21.215 0 01-15.059-6.207 22.07 22.07 0 01-6.486-15.561 22.07 22.07 0 016.396-15.598 21.099 21.099 0 0114.977-6.315c2.79-.011 5.555.53 8.135 1.593zm-28.933 20.4a21.575 21.575 0 002.961 10.77c6.584-.025 12.144-.038 16.838-.05 9.39-.023 15.32-.037 19.074-.113a21.557 21.557 0 000-21.584c-2.159 0-5.054.02-8.953.046-6.168.041-14.85.1-27.097.125a21.573 21.573 0 00-2.823 10.806z" fill="#48617A"/><path d="M28.672 12.93c.672-.31 1.195-.623 1.722-.938.494-.296.991-.593 1.619-.892-.45-1.3-.842-2.495-1.198-3.58-2.035-6.2-2.89-8.806-6.69-6.915-4.188 2.082-1.618 5.095 3.495 11.09l.002.002 1.05 1.233zm35.838-1.822c.587.407 1.108.681 1.63.956.521.274 1.043.55 1.63.956.581-.73 1.136-1.417 1.66-2.064 4.63-5.73 6.75-8.354 3.008-10.262-4.024-2.052-5.163 1.587-7.663 9.566l-.265.848z" fill="#916854"/><path fill-rule="evenodd" clip-rule="evenodd" d="M48.228 11.222c-17.552.065-31.828 14.554-31.78 32.29.05 17.736 14.448 32.16 32.009 32.063 17.56-.098 31.829-14.563 31.78-32.299-.05-17.735-14.448-32.12-32.008-32.054zm.22 62.01a29.966 29.966 0 01-16.72-4.853 29.893 29.893 0 01-11.185-13.323 29.838 29.838 0 01-1.865-17.285 29.867 29.867 0 018.087-15.395 29.943 29.943 0 0115.302-8.297 29.976 29.976 0 0117.337 1.611A29.92 29.92 0 0172.91 26.663a29.847 29.847 0 015.102 16.621 29.775 29.775 0 01-8.59 21.067 29.873 29.873 0 01-20.973 8.88z" fill="#916854"/><path d="M62.611 10.961l-.774 1.635 5.802 3.393.97-1.611-5.998-3.417zm21.211 30.143c-.073.78-.057 1.422-.04 2.071.014.568.029 1.142-.017 1.818 1.29.234 2.47.467 3.545.679 6.392 1.263 9.08 1.794 9.338-2.51.28-4.66-3.46-3.917-10.978-2.423-.593.117-1.209.24-1.848.365zm-.774-1.765l-1.809.097-.106 6.793 1.81.057.105-6.947zM67.207 74.118c-.649.318-1.169.64-1.687.96-.49.304-.978.607-1.572.903a227.45 227.45 0 011.206 3.509v.002l.002.003c2.095 6.21 2.973 8.813 6.777 6.876 4.164-2.12 1.58-5.079-3.569-10.971-.362-.415-.738-.845-1.124-1.29l-.033.008zm1.157-1.594l-1.01-1.497-5.851 3.295.88 1.635 5.981-3.433zm-36.922 2.481c-.592-.402-1.116-.683-1.64-.964-.536-.287-1.07-.573-1.677-.989-.87 1.094-1.683 2.077-2.419 2.968-4.082 4.943-5.817 7.045-2.282 9.333 3.91 2.532 5.122-1.269 7.52-8.789l.498-1.56zm1.891.138l.774-1.635-5.802-3.425-.962 1.61 5.99 3.45zM12.904 44.757c.033-.735.004-1.348-.025-1.954a19.4 19.4 0 01-.024-1.902c-1.316-.2-2.519-.402-3.613-.585C2.84 39.24.144 38.788.004 43.089c-.152 4.706 3.681 3.814 11.254 2.05h.002v-.001l1.644-.381zm.823 1.749l1.784-.17-.057-6.786-1.841-.032.114 6.988zM27.49 14.525l1.01 1.505 5.876-3.23-.84-1.635-6.046 3.36z" fill="#916854"/><path d="M20.254 44.878l-.082-1.066 4.547-.357.302 3.856-4.547.358-.098-1.082 3.667-.285-.138-1.717-3.651.293z" fill="#D24A43"/><path fill-rule="evenodd" clip-rule="evenodd" d="M25.714 50.02c.244.895.114 1.75-.97 2.042a1.495 1.495 0 01-1.72-.662 1.486 1.486 0 01-.203-.623l-.269-.985-1.516.407-.285-1.033 4.409-1.155.554 2.01zm-2.306-.464l.22.814c.13.488.375.691.814.578.566-.155.447-.619.384-.86l-.009-.035-.22-.814-1.19.317zm1.619 2.944c-.315.041-.617.15-.886.319a2.193 2.193 0 00-1.423 2.24c.027.317.124.624.282.9a2.166 2.166 0 003.186 1 2.168 2.168 0 001.433-2.24 2.162 2.162 0 00-.292-.9 2.188 2.188 0 00-2.3-1.318zm1.51 1.71c.48.984-.506 1.521-.864 1.7v.008c-.342.163-1.394.627-1.874-.358-.261-.537-.204-1.171.863-1.7.937-.464 1.549-.31 1.875.35zm0 6.248l-.114-.138c-1.109-1.359-.481-2.368.09-2.823.57-.456 1.686-.863 2.786.496l.114.138.497-.407.677.814-.497.407.105.13c1.117 1.367.473 2.384-.081 2.831-.554.448-1.679.863-2.795-.504l-.106-.13-.497.406-.676-.813.497-.407zm2.265-1.708l-.057-.065a1.017 1.017 0 00-1.532-.318c-.367.293-.644.773 0 1.562l.057.065 1.532-1.244zm-.92 1.985c.472.586.977.764 1.531.317a1.02 1.02 0 00.27-1.212 1.02 1.02 0 00-.27-.35l-.073-.09-1.532 1.237.073.098z" fill="#D24A43"/><path d="M32.907 65.984c.23-.107.436-.26.605-.45l-.848-.659a.913.913 0 01-1.279.066c-.57-.456-.489-1.188.049-1.855.953-1.188 1.646-.7 1.833-.545a.815.815 0 01.245 1.212l.815.659c.399-.545.709-1.587-.554-2.596l-.007-.004c-.338-.245-1.763-1.277-3.253.582-1.116 1.391-.62 2.482.293 3.206a1.85 1.85 0 002.101.384z" fill="#D24A43"/><path fill-rule="evenodd" clip-rule="evenodd" d="M34.416 65.34a2.188 2.188 0 012.271-1.358c.316.034.62.137.891.3a2.44 2.44 0 01-2.216 4.279 2.19 2.19 0 01-1.29-2.337c.049-.317.166-.618.344-.885zm3.064 1.626c.188-.358.66-1.374-.317-1.879-.652-.342-1.24-.097-1.72.814-.546 1.057-.212 1.627.318 1.879.978.48 1.548-.513 1.727-.854l-.008.04zm4.074.065a2.06 2.06 0 00-.407.7l-.57-.146.4-1.676-1.044-.244-1.043 4.426 1.043.252.416-1.888.57.139a2.077 2.077 0 00.937 2.256c.249.153.526.251.815.29a2.447 2.447 0 002.551-1.87 2.437 2.437 0 00-1.434-2.816 2.065 2.065 0 00-2.234.577zm.571 1.506c.098-.407.4-1.473 1.467-1.22h-.008c1.075.22.855 1.35.766 1.749-.09.398-.4 1.464-1.467 1.212-1.067-.252-.856-1.334-.758-1.741z" fill="#D24A43"/><path d="M47.202 69.977c0 .472.301.813 1.076.813.774 0 .928-.341.928-.593 0-.521-.521-.554-.814-.554h-.644v-.813h.538c.31 0 .75-.049.75-.504 0-.456-.734-.546-.889-.546a.717.717 0 00-.815.724H46.29c.073-1.236.815-1.627 2.005-1.627 1.027 0 1.931.318 1.931 1.286a.968.968 0 01-.872 1 1.07 1.07 0 01.962.733c.044.136.06.28.049.423 0 1.155-1.125 1.366-2.12 1.366-.993 0-2.012-.211-2.085-1.7l1.043-.008zm7.399.927l-.888-3.14 2.037 2.807.7-.204.204-3.441.897 3.124 1.035-.293-1.255-4.377-1.45.415-.188 3.311-1.907-2.709-1.475.423 1.255 4.377 1.035-.293z" fill="#D24A43"/><path fill-rule="evenodd" clip-rule="evenodd" d="M58.765 67.195a2.188 2.188 0 01.815-3.255 2.45 2.45 0 013.09 1.066 2.437 2.437 0 01-.735 3.181 2.193 2.193 0 01-3.17-.992zm3.023-1.668c-.196-.35-.815-1.31-1.744-.814-.644.358-.774.977-.269 1.888.579 1.041 1.214 1.065 1.744.813.962-.529.456-1.546.269-1.887zm4.164-4.214c-.725-.814-1.556-.595-2.265 0l-1.63 1.342 2.91 3.49.814-.692-1.01-1.204.814-.65a1.492 1.492 0 00.688-1.712 1.488 1.488 0 00-.32-.575zm-1.076 1.749l-.643.537-.783-.977.644-.537.028-.02c.173-.13.565-.425.942.02.285.342.204.651-.188.977zm3.977-2.792l.644 1.693-.815.985-.595-1.92a1.33 1.33 0 01-1.866 0 1.441 1.441 0 01-.09-2.189l1.508-1.74 3.512 2.912-.684.813-1.215-1.009-.399.456zm-1.89-1.008c-.359.44-.196.749 0 .92.195.17.546.317.953-.171l.62-.74-.897-.782-.676.773z" fill="#D24A43"/><path d="M69.888 53.111l-.62 1.099.913 2.27-1.63-.936-.53.936 3.977 2.229.53-.936-1.923-1.066 2.738-.317.57-1.139-3.104.472-.921-2.612z" fill="#D24A43"/><path fill-rule="evenodd" clip-rule="evenodd" d="M72.096 53.828a2.194 2.194 0 01-1.716-2.018 2.184 2.184 0 01.152-.927 2.443 2.443 0 012.938-1.186 2.444 2.444 0 011.641 2.707 2.19 2.19 0 01-3.015 1.424zm1.084-3.255c-.383-.13-1.459-.439-1.81.61-.227.7.099 1.237 1.085 1.57 1.132.375 1.63 0 1.809-.61.358-1.065-.71-1.472-1.076-1.594l-.008.024zm-.147-5.817c-.505-.065-1.173.074-1.32 1.253l-.269 2.262 4.531.553.212-2.14c.098-.805.033-1.749-1.06-1.887a1.126 1.126 0 00-1.279.814.951.951 0 00-.815-.855zm.432 1.693l-.122.984-.904-.114.114-.935c.065-.472.326-.521.513-.521a.474.474 0 01.4.586zm1.883.105l-.139 1.107-1.027-.13.123-.968c.04-.383.179-.708.603-.66a.548.548 0 01.44.651z" fill="#D24A43"/><path d="M54.291 15.964l-1.067-.154-2.217 2.66.416-2.912-1.068-.155-.643 4.507 1.034.147 2.225-2.685-.391 2.977 1.068.122.643-4.507zm-1.882-.96c-.4-.057-.497-.293-.497-.512l-.717-.098c-.074.806.937 1.041 1.149 1.074.212.033 1.222.106 1.401-.708l-.717-.105c-.032.22-.22.406-.62.35zm-5.533.416l1.075-.09.375 4.54-1.06.089-.244-2.961-1.564 3.116-1.076.089-.375-4.54 1.076-.09.245 2.93 1.548-3.084zM42.9 19.608c.037-.255.02-.515-.05-.764l-1.05.366a.91.91 0 01-.66 1.099c-.702.22-1.256-.26-1.517-1.074-.456-1.456.343-1.75.57-1.823a.82.82 0 01.973.17c.08.087.14.19.177.302l1.01-.317c-.203-.626-.904-1.464-2.444-.984-.416.13-2.07.74-1.345 3.034.538 1.709 1.711 1.896 2.828 1.546a1.85 1.85 0 001.508-1.555zm-5.257 1.002a1.845 1.845 0 01-.92 2.538c-1.01.586-2.2.651-3.097-.895-1.206-2.082.277-3.034.652-3.254 1.402-.814 2.257-.138 2.624.423l-.913.529a.813.813 0 00-1.222-.212c-.212.122-.92.586-.155 1.904.432.74 1.076 1.082 1.711.716a.912.912 0 00.4-1.22l.92-.53z" fill="#D24A43"/><path fill-rule="evenodd" clip-rule="evenodd" d="M28.455 25.41c.129.29.32.547.559.756a2.19 2.19 0 002.551.72 2.19 2.19 0 00.782-.524 2.165 2.165 0 00.618-2.581 2.163 2.163 0 00-.57-.755 2.165 2.165 0 00-2.553-.729 2.178 2.178 0 00-.779.534 2.189 2.189 0 00-.608 2.578zm1.203-1.928c.806-.749 1.605.04 1.882.333h.008l.007.008c.244.285.98 1.146.18 1.888-.44.407-1.173.431-1.882-.334-.709-.764-.733-1.39-.195-1.895zm-2.201 3.262c-.937-.635-1.67-.179-2.192.586l-1.206 1.716 3.765 2.58.611-.887-1.295-.887.578-.814a1.488 1.488 0 00-.26-2.294zm-.578 1.944l-.473.692-1.002-.683.473-.692c.106-.203.407-.65.92-.301.367.244.367.561.082.984z" fill="#D24A43"/><path d="M59.376 20.78a1.846 1.846 0 01-1.834 1.097c-.254-.02-.5-.09-.725-.21-1.084-.414-1.898-1.317-1.255-2.945.856-2.245 2.535-1.7 2.942-1.545 1.508.577 1.532 1.627 1.32 2.302l-.986-.374a.812.812 0 00-.603-1.082c-.228-.09-1.035-.342-1.58 1.074-.31.813-.164 1.521.52 1.781a.914.914 0 001.199-.455l1.002.358zm6.128.35l-1.06-.691-2.363.748 1.043-1.627-.904-.586-2.486 3.816.897.61 1.23-1.855.139 2.742 1.1.716-.269-3.124 2.673-.749zM69 24.418l.758.764-3.26 3.198-.758-.765 2.119-2.091-3.398.813-.758-.764 3.26-3.197.757.764-2.094 2.067 3.374-.79zm4.343 6.003l-.579-.91H69.27l2.558-1.57-.57-.912-3.879 2.4.57.911h3.488l-2.534 1.562.562.911 3.879-2.392z" fill="#D24A43"/></svg>