<svg width="835" height="903" fill="none" xmlns="http://www.w3.org/2000/svg"><path d="M694.402 639.41c-4.625 5.09-7.962 9.657-11.323 14.255-3.155 4.316-6.33 8.66-10.608 13.49 8.554 9.481 16.23 18.273 23.199 26.256 39.839 45.633 56.584 64.815 82.228 34.895 28.253-32.965-4.62-49.415-70.04-82.149l-.015-.007c-4.34-2.172-8.823-4.415-13.441-6.74zM394.653 784.749c-6.489-1.352-11.941-1.811-17.393-2.27-5.452-.459-10.904-.918-17.392-2.27a3831.727 3831.727 0 01-6.718 23.65c-18.834 65.746-27.458 95.853 11.432 98.615 41.83 2.971 38.396-32.262 30.869-109.516l-.798-8.209z" fill="#E5E5E5"/><path fill-rule="evenodd" clip-rule="evenodd" d="M533.414 724.824c149.803-64.11 219.377-239.661 154.741-391.09-64.635-151.429-239.946-222.595-389.701-158.177-149.756 64.417-219.348 239.73-154.712 391.159 64.635 151.429 239.798 222.248 389.672 158.108zM307.007 195.556a278.18 278.18 0 01160.498-19.06 277.516 277.516 0 01143.853 73.388 276.991 276.991 0 0178.525 140.997A277.27 277.27 0 01676.5 551.766a277.992 277.992 0 01-100.761 126.322 278.276 278.276 0 01-154.035 49.006 277.77 277.77 0 01-155.177-44.897 277.094 277.094 0 01-103.799-123.605c-28.866-67.217-29.893-143.148-2.853-211.183 27.038-68.034 79.94-122.634 147.132-151.853z" fill="#E5E5E5"/><path d="M411.414 779.13l.696-16.781-61.878-7.993-2.457 17.282 63.639 7.492zM120.957 598.271c-2.195-6.942-4.661-12.371-7.152-17.857-2.181-4.801-4.383-9.65-6.44-15.592-11.877 2.67-22.802 4.949-32.758 7.025-59.212 12.349-84.119 17.544-70.74 55.27 14.486 40.852 43.761 20.958 102.622-19.039 4.636-3.151 9.457-6.426 14.468-9.807zm13.011 12.284l15.11-7.384-23.692-58.453-15.669 6.063 24.251 59.774zm9.479-354.659c4.397-5.065 7.675-9.699 10.94-14.316 3.09-4.369 6.171-8.723 10.177-13.411-8.469-9.24-16.086-17.818-23.014-25.62l-.009-.011-.008-.009-.015-.017c-40.402-45.503-57.33-64.57-82.835-34.235-27.917 33.202 4.89 49.131 70.232 80.856 4.602 2.235 9.366 4.548 14.282 6.951l.25-.188zm-4.116 17.822l14.057 9.138 38.083-49.35-13.443-10.792-38.697 51.004zm306.63-154.897c6.517 1.293 12.015 1.795 17.506 2.297 5.619.514 11.23 1.026 17.914 2.385 3.488-12.503 6.87-23.85 9.933-34.13C508.309 32.34 515.535 8.09 477.033 1.326c-42.593-7.48-39.19 29.394-32.456 102.358.451 4.882.916 9.934 1.384 15.136zm-16.665 5.664l-.696 16.782 61.997 8.27 2.387-17.252-63.688-7.8zm284.653 185.776c2.382 6.404 4.846 11.533 7.288 16.615 2.42 5.038 4.818 10.03 7.093 16.171 11.973-3.061 22.98-5.689 32.997-8.079 58.632-13.997 83.31-19.888 68.926-57.158-15.739-40.782-45.274-19.27-103.62 23.229l-.011.008-.009.007c-4.079 2.97-8.299 6.044-12.664 9.207zm-13.366-11.974l-14.636 7.922 25.054 57.793 15.861-6.39-26.279-59.325zm-1.854 323.215l-14.087-9.207-38.527 48.882 13.095 10.939 39.519-50.614z" fill="#E5E5E5"/><path fill-rule="evenodd" clip-rule="evenodd" d="M395.403 402.285c-27.97 11.847-41.04 44.125-29.192 72.095 11.847 27.97 44.126 41.04 72.096 29.193 27.97-11.848 41.039-44.126 29.192-72.096-11.848-27.97-44.126-41.04-72.096-29.192zm12.481 29.465c-11.696 4.955-17.162 18.453-12.208 30.149 4.955 11.697 18.453 17.162 30.15 12.208 11.696-4.954 17.162-18.453 12.207-30.149-4.954-11.697-18.452-17.162-30.149-12.208zm-31.544 38.34a5 5 0 119.207-3.9 5 5 0 01-9.207 3.9zm75.397-37.367a5 5 0 103.9 9.208 5 5 0 00-3.9-9.208zm-54.697-13.756a5 5 0 119.209-3.9 5 5 0 01-9.209 3.9zm33.466 66.19a5 5 0 103.9 9.208 5 5 0 00-3.9-9.208z" fill="#E5E5E5"/><path d="M401.476 719l-32.834-3.308 14.497-52.501a103.184 103.184 0 003.113-16.29l3.977-36.612a201.919 201.919 0 00.782-34.535l-3.185-50.49 32.834 3.308-10.75 40.421a322.976 322.976 0 00-9.195 50.352l-1.852 18.221a215.907 215.907 0 00-.553 37.298L401.476 719zm32.741-532.894l32.834 3.308-14.497 52.501a102.957 102.957 0 00-3.113 16.29l-3.978 36.612a202.02 202.02 0 00-.781 34.535l3.185 50.49-32.834-3.308 10.75-40.421a322.973 322.973 0 009.194-50.352l1.852-18.221a216.008 216.008 0 00.554-37.298l-3.166-44.136zM179.893 573.935l-12.871-30.386 53.01-12.505a102.907 102.907 0 0015.783-5.095l34.022-14.098a202.03 202.03 0 0030.665-15.904l42.753-27.047 12.871 30.386-40.615 9.989a323.01 323.01 0 00-48.579 16.123l-16.871 7.128a216.102 216.102 0 00-32.979 17.431l-37.189 23.978zm312.151-132.221l-12.871-30.386 53.011-12.505a103.04 103.04 0 0015.782-5.095l34.022-14.098a201.945 201.945 0 0030.665-15.905l42.754-27.047 12.871 30.387-40.616 9.988a323.01 323.01 0 00-48.579 16.123l-16.871 7.129a215.925 215.925 0 00-32.979 17.431l-37.189 23.978zm150.72 154.837l-19.75 26.437-37.529-39.472a102.911 102.911 0 00-12.358-11.06l-29.33-22.272a201.992 201.992 0 00-29.197-18.461l-44.915-23.282 19.75-26.437 29.106 30.037a322.897 322.897 0 0038.419 33.821l14.663 10.975a216.003 216.003 0 0031.683 19.69l39.458 20.024zM192.928 308.555l19.75-26.437 37.53 39.472a102.979 102.979 0 0012.357 11.06l29.331 22.272a201.992 201.992 0 0029.197 18.461l44.914 23.282-19.75 26.437-29.106-30.037a322.819 322.819 0 00-38.419-33.821l-14.663-10.975a215.993 215.993 0 00-31.682-19.69l-39.459-20.024z" fill="#E5E5E5"/></svg>