<svg width="1440" height="875" fill="none" xmlns="http://www.w3.org/2000/svg"><g clip-path="url(#clip0_241_127)"><path fill="url(#paint0_linear_241_127)" d="M0 0h1440v875H0z"/><path d="M-155.627 432.135c53.97-97.014 264.903-30.256 246.627-139.757-19.659-117.787 259.259 36.681 360.803 96.415 24.3 14.295 49.323 26.937 76.173 35.534C630.637 457.196 892.152 523.872 843 331.219c-39.418-154.502 174.56 4.531 283.65 93.379 40.8 33.237 86.75 64.553 139.27 61.143 67.63-4.39 161.79-44.188 210.08-215.677C1513 138.664 2162 875 2162 875H-402l246.373-442.865z" fill="url(#paint1_linear_241_127)"/><path d="M-230.179 529.207c61.505-87.84 272.224-11.17 250.179-116.113-19.897-94.719 266.071 32.155 364.42 78.298 21.894 10.273 44.044 19.171 67.457 25.231 98.772 25.561 370.111 83.002 320.123-72.668-39.731-123.728 177.97 5.619 286.22 75.86 39.05 25.339 81.28 48.027 127.83 47.217 68.02-1.184 168.51-29.344 218.95-171.666C1442 290.966 2091 876 2091 876H-473l242.821-346.793z" fill="url(#paint2_linear_241_127)"/><path d="M-356.408 616.019c69.9-76.02 281.87 6.534 254.408-93.019-20.248-73.398 276.238 27.941 369.439 61.422 18.393 6.607 37.008 12.308 56.168 16.165C416.541 619.295 701.089 667.653 650 546.5c-40.548-96.156 187.033 8.412 292.758 61.008 34.626 17.226 70.872 31.883 109.542 32.672 67.67 1.379 177.27-15.872 230.7-130.68 37-79.5 686 366 686 366H-595l238.592-259.481z" fill="url(#paint3_linear_241_127)"/></g><defs><linearGradient id="paint0_linear_241_127" x1="719.739" y1="29" x2="720.696" y2="874.999" gradientUnits="userSpaceOnUse"><stop stop-color="#6493CE"/><stop offset="1" stop-color="#58C9E2" stop-opacity=".3"/></linearGradient><linearGradient id="paint1_linear_241_127" x1="864" y1="358.491" x2="864" y2="1015.49" gradientUnits="userSpaceOnUse"><stop stop-color="#09A5FD"/><stop offset="1" stop-color="#D9D9D9" stop-opacity="0"/></linearGradient><linearGradient id="paint2_linear_241_127" x1="793" y1="465.623" x2="793" y2="987.623" gradientUnits="userSpaceOnUse"><stop stop-color="#3CB7FD"/><stop offset="1" stop-color="#D9D9D9" stop-opacity="0"/></linearGradient><linearGradient id="paint3_linear_241_127" x1="671" y1="563" x2="671" y2="960.5" gradientUnits="userSpaceOnUse"><stop stop-color="#6BCAFF"/><stop offset="1" stop-color="#D9D9D9" stop-opacity="0"/></linearGradient><clipPath id="clip0_241_127"><path fill="#fff" d="M0 0h1440v875H0z"/></clipPath></defs></svg>