<svg width="48" height="36" fill="none" xmlns="http://www.w3.org/2000/svg"><path d="M46.1 4.693V1.67l-.437-.172C45.512 1.44 41.961.06 37.22.06c-5.072 0-9.447 1.546-13.006 4.599-3.556-3.053-7.931-4.6-13.006-4.6-4.742 0-8.293 1.381-8.44 1.439l-.439.17V4.47C.894 4.739 0 5.22 0 6.005v28.857h21.256c.733.658 1.81 1.076 3.011 1.076 1.2 0 2.276-.417 3.014-1.076H48V6.005c-.002-.639-.725-1.055-1.9-1.312zM23.987 32.588c-1.766-.73-7.845-3.04-13.93-3.04-2.404 0-4.535.369-6.35 1.096V2.624c1.056-.353 3.946-1.187 7.5-1.187 4.673 0 8.688 1.414 11.97 4.17v16.725l.81-.89v11.146zm20.734-1.934c-1.95-.785-4.189-1.178-6.667-1.178-6.081 0-11.872 2.33-13.614 3.097V21.44l.81.891V5.607c3.28-2.756 7.297-4.17 11.97-4.17 3.544 0 6.441.835 7.501 1.188v28.029z" fill="#000"/><path d="M14.902 7.197c3.257.625 5.476 1.826 5.515 1.846l.54-.974c-.16-.091-2.559-1.391-6.056-2.026l.001 1.154zm0 3.157c3.257.624 5.476 1.826 5.515 1.848l.54-.975c-.16-.092-2.559-1.391-6.056-2.024l.001 1.151zm0 2.967c3.257.626 5.476 1.826 5.515 1.848l.54-.975c-.16-.093-2.559-1.391-6.056-2.024l.001 1.151zm0 3.253c3.257.625 5.476 1.827 5.515 1.847l.54-.973c-.16-.092-2.559-1.393-6.056-2.026l.001 1.152zM6.431 18.7l.287 1.079c7.177-1.901 13.635 1.621 13.699 1.656l.54-.974c-.275-.154-6.905-3.779-14.526-1.76zm0 3.095l.287 1.079c7.177-1.904 13.635 1.618 13.699 1.655l.54-.973c-.275-.158-6.905-3.779-14.526-1.76zm0 3.103l.287 1.078c7.177-1.905 13.635 1.62 13.699 1.654l.54-.973c-.275-.156-6.905-3.779-14.526-1.76zM28.338 9.126c.067-.035 6.523-3.557 13.697-1.653l.287-1.079C34.702 4.374 28.07 8 27.794 8.154l.544.972zm-.54 2.184l.54.974c.067-.035 6.523-3.559 13.697-1.654l.287-1.08c-7.618-2.02-14.248 1.605-14.524 1.76zm0 2.966l.54.975c.067-.037 6.523-3.557 13.697-1.656l.287-1.078c-7.618-2.018-14.248 1.605-14.524 1.76zm0 3.254l.54.973c.067-.035 6.523-3.559 13.697-1.655l.287-1.078c-7.618-2.022-14.248 1.604-14.524 1.76zm0 3.013l.54.976c.067-.036 6.523-3.559 13.697-1.656l.287-1.079c-7.618-2.018-14.248 1.603-14.524 1.759zm0 3.095l.54.973c.067-.035 6.523-3.557 13.697-1.655l.287-1.077c-7.618-2.02-14.248 1.603-14.524 1.759zm0 3.102l.54.972c.067-.032 6.523-3.558 13.697-1.653l.287-1.079c-7.618-2.02-14.248 1.607-14.524 1.76zM13.696 16.377V5.856s-1.791-.205-3.633-.156c-1.838.05-3.632.61-3.632.61v10.52s1.5-.444 3.434-.584c1.931-.14 3.83.13 3.83.13z" fill="#000"/></svg>