<svg width="48" height="32" fill="none" xmlns="http://www.w3.org/2000/svg"><path d="M46 0H7.333a2 2 0 00-2 2v.667H2a2 2 0 00-2 2v22.666A4.667 4.667 0 004.667 32H44a4 4 0 004-4V2a2 2 0 00-2-2zM4.667 28A.666.666 0 014 27.333V6.667h1.333v20.666a.667.667 0 01-.666.667zm19.666-1.333H11.667a1 1 0 01-1-1V25a1 1 0 011-1h12.666a1 1 0 011 1v.667a1 1 0 01-1 1zm17.334 0H29a1 1 0 01-1-1V25a1 1 0 011-1h12.667a1 1 0 011 1v.667a1 1 0 01-1 1zm-17.334-8H11.667a1 1 0 01-1-1V17a1 1 0 011-1h12.666a1 1 0 011 1v.667a1 1 0 01-1 1zm17.334 0H29a1 1 0 01-1-1V17a1 1 0 011-1h12.667a1 1 0 011 1v.667a1 1 0 01-1 1zm0-8h-30a1 1 0 01-1-1V6.333a1 1 0 011-1h30a1 1 0 011 1v3.334a1 1 0 01-1 1z" fill="#000"/></svg>