<svg width="636" height="675" fill="none" xmlns="http://www.w3.org/2000/svg"><path d="M554.102 420.154c-2.367 4.565-3.902 8.505-5.45 12.473-1.452 3.724-2.913 7.471-5.079 11.782 8 5.211 15.233 10.093 21.8 14.526 37.539 25.336 53.319 35.987 66.113 9.448 14.096-29.24-12.814-34.823-66.367-45.933l-.012-.002c-3.553-.738-7.222-1.499-11.005-2.294zM365.36 582.662c-4.948.266-8.976.98-13.004 1.694-4.028.714-8.056 1.428-13.004 1.694-.086 6.479-.206 12.606-.319 18.379-1.003 51.123-1.462 74.533 27.171 69.072 30.798-5.875 21.56-30.677 1.307-85.06-.704-1.89-1.422-3.817-2.151-5.779z" fill="#E5E5E5"/><path fill-rule="evenodd" clip-rule="evenodd" d="M454.144 512.749c95.96-75.055 112.574-215.256 36.828-312.292-75.746-97.034-216.079-114.845-311.946-39.577-95.868 75.267-112.54 215.3-36.794 312.335 75.745 97.035 215.906 114.623 311.912 39.534zM189.041 173.692a207.985 207.985 0 01112.328-44.55 207.478 207.478 0 01118.027 25.448 207.099 207.099 0 0183.783 86.833 207.3 207.3 0 0121.179 118.829 207.833 207.833 0 01-48.59 110.607 208.054 208.054 0 01-101.916 64.951 207.668 207.668 0 01-120.746-2.688 207.176 207.176 0 01-98.712-69.418c-33.749-43.039-49.051-97.713-42.558-152.063 6.494-54.349 34.253-103.949 77.205-137.949z" fill="#E5E5E5"/><path d="M376.395 575.387l-2.715-12.261-46.249 6.09 1.539 12.959 47.425-6.788zm-244.577-74.999c-2.918-4.596-5.741-8.046-8.594-11.533-2.496-3.052-5.017-6.133-7.643-10.033-8.071 4.207-15.529 7.949-22.325 11.358-40.422 20.279-57.424 28.808-40.522 53.506 18.302 26.743 35.643 6.753 70.509-33.438 2.746-3.165 5.602-6.457 8.575-9.86zm11.757 6.382l9.503-8.234-28.329-37.698-10.161 7.386 28.987 38.546zM82.417 248.66c2.206-4.503 3.686-8.48 5.16-12.443 1.396-3.75 2.787-7.487 4.783-11.643-7.892-5.053-15.041-9.791-21.544-14.101l-.008-.006-.008-.005-.014-.01c-37.922-25.135-53.81-35.667-66.425-8.855-13.807 29.346 12.955 34.566 66.257 44.962 3.755.733 7.641 1.491 11.654 2.285l.145-.184zm.443 13.669l11.91 3.907 18.058-42.965-11.785-5.221-18.183 44.279zM274.741 91.595c4.957-.315 9.027-1.007 13.092-1.697 4.158-.707 8.312-1.412 13.402-1.712.123-9.704.391-18.552.633-26.57 1.345-44.472 1.917-63.38-27.203-60.885-32.214 2.761-22.684 28.755-3.826 80.192 1.261 3.44 2.567 7.002 3.902 10.672zm-10.956 7.289l2.715 12.26 46.387-5.912-1.583-12.924-47.519 6.576zm241.325 79.665c2.95 4.171 5.714 7.405 8.453 10.609 2.715 3.176 5.405 6.324 8.227 10.326 8.065-4.508 15.515-8.518 22.296-12.166 39.686-21.358 56.389-30.347 38.848-54.521-19.194-26.454-36.412-5.244-70.426 36.656l-.006.007-.006.007a4449.694 4449.694 0 01-7.386 9.082zm-11.954-6.09l-9.058 8.531 29.188 36.96 10.236-7.66-30.366-37.831zm60.638 233.924l-11.945-3.952-18.468 42.712 11.561 5.394 18.852-44.154z" fill="#E5E5E5"/><path fill-rule="evenodd" clip-rule="evenodd" d="M292.562 306.132c-17.941 13.925-21.196 39.757-7.271 57.698 13.925 17.94 39.757 21.195 57.698 7.27 17.94-13.925 21.195-39.757 7.27-57.697-13.925-17.94-39.757-21.196-57.697-7.271zm14.669 18.9c-7.502 5.823-8.863 16.626-3.04 24.128 5.823 7.502 16.626 8.864 24.128 3.041 7.502-5.824 8.864-16.626 3.04-24.128-5.823-7.503-16.625-8.864-24.128-3.041zm-15.443 33.755a3.738 3.738 0 115.905-4.584 3.738 3.738 0 01-5.905 4.584zm47.32-41.461a3.738 3.738 0 104.583 5.906 3.738 3.738 0 00-4.583-5.906zm-42.164.548a3.738 3.738 0 115.905-4.584 3.738 3.738 0 01-5.905 4.584zm36.876 41.414a3.738 3.738 0 104.583 5.906 3.738 3.738 0 00-4.583-5.906z" fill="#E5E5E5"/><path d="M357.682 533.84l-24.361 3.905.409-40.719a77.098 77.098 0 00-.874-12.368l-4.146-27.221a151.121 151.121 0 00-6.058-25.106l-11.983-35.875 24.361-3.906-.017 31.271a241.396 241.396 0 003.011 38.149l2.155 13.523a161.47 161.47 0 006.752 27.06l10.751 31.287zm-78.525-391.37l24.361-3.906-.408 40.719a76.89 76.89 0 00.874 12.369l4.146 27.22a150.899 150.899 0 006.058 25.106l11.983 35.876-24.362 3.906.018-31.271c.007-12.776-1-25.533-3.011-38.15l-2.156-13.523a161.459 161.459 0 00-6.752-27.059l-10.751-31.287zM169.74 471.5l-15.128-19.49 35.91-19.202a76.944 76.944 0 0010.428-6.708l21.883-16.712a151.127 151.127 0 0019.11-17.373l25.709-27.744 15.128 19.49-27.436 15.007a241.566 241.566 0 00-32.013 20.966l-10.825 8.387a161.476 161.476 0 00-20.489 18.92L169.74 471.5zm200.22-155.406l-15.128-19.49 35.91-19.202a77.006 77.006 0 0010.428-6.708l21.882-16.712a151.058 151.058 0 0019.11-17.373l25.709-27.744 15.128 19.491-27.435 15.006a241.577 241.577 0 00-32.014 20.966l-10.824 8.387a161.484 161.484 0 00-20.49 18.92l-22.276 24.459zm138.608 82.99l-9.203 22.892-34.69-21.328a77.082 77.082 0 00-11.051-5.623l-25.466-10.469a151.01 151.01 0 00-24.639-7.743l-36.921-8.211 9.202-22.892 26.793 16.125a241.502 241.502 0 0034.249 17.073l12.7 5.119a161.423 161.423 0 0026.671 8.153l32.355 6.904zM128.272 277.225l9.203-22.892 34.689 21.329a76.973 76.973 0 0011.051 5.622l25.466 10.47a150.94 150.94 0 0024.639 7.742l36.922 8.212-9.203 22.892-26.793-16.125a241.502 241.502 0 00-34.249-17.073l-12.7-5.119a161.522 161.522 0 00-26.671-8.154l-32.354-6.904z" fill="#E5E5E5"/></svg>